<svg xmlns="http://www.w3.org/2000/svg" aria-hidden="true" style="position:absolute;width:0;height:0;overflow:hidden">
    <defs>
        <!-- Socials reseted -->
        <symbol id="instagram" viewBox="0 0 32 32">
            <path stroke-linecap="round" stroke-linejoin="round" stroke-width="2.667"
                d="M22.667 2.667H9.334a6.667 6.667 0 0 0-6.667 6.667v13.333a6.667 6.667 0 0 0 6.667 6.667h13.333a6.667 6.667 0 0 0 6.667-6.667V9.334a6.667 6.667 0 0 0-6.667-6.667z" />
            <path stroke-linecap="round" stroke-linejoin="round" stroke-width="2.667"
                d="M21.334 15.16a5.329 5.329 0 0 1-2.878 5.546 5.338 5.338 0 0 1-6.169-.992 5.33 5.33 0 0 1 1.316-8.505 5.336 5.336 0 0 1 6.228.962 5.328 5.328 0 0 1 1.504 2.989zM23.333 8.667h.013" />
        </symbol>
        <symbol id="twitter" viewBox="0 0 32 32">
            <path stroke-linecap="round" stroke-linejoin="round" stroke-width="2.667"
                d="M30.667 4a14.542 14.542 0 0 1-4.187 2.04 5.975 5.975 0 0 0-6.637-1.661A5.981 5.981 0 0 0 16 10.04v1.333c-2.343.061-4.665-.459-6.759-1.513S4.68 6.297 3.333 4.379c0 0-4.667 12.954 7.333 18.287a15.519 15.519 0 0 1-9.333 2.667C13.333 32 28 25.333 28 10a5.966 5.966 0 0 0-.107-1.107A10.288 10.288 0 0 0 30.666 4z" />
        </symbol>
        <!-- Adventeges -->
        <symbol id="coin" viewBox="0 0 32 32">
            <path
                d="M16.0001 2.66675C8.66675 2.66675 2.66675 8.66675 2.66675 16.0001C2.66675 23.3334 8.66675 29.3334 16.0001 29.3334C23.3334 29.3334 29.3334 23.3334 29.3334 16.0001C29.3334 8.66675 23.3334 2.66675 16.0001 2.66675ZM16.0001 26.6667C10.1334 26.6667 5.33341 21.8667 5.33341 16.0001C5.33341 10.1334 10.1334 5.33341 16.0001 5.33341C21.8667 5.33341 26.6667 10.1334 26.6667 16.0001C26.6667 21.8667 21.8667 26.6667 16.0001 26.6667Z" />
            <path
                d="M17.7335 14.6667H14.2668C13.6001 14.6667 13.0668 14.1333 13.0668 13.4667C13.0668 12.8 13.6001 12.2667 14.2668 12.2667H19.2001C20.0001 12.2667 20.5335 11.7333 20.5335 10.9333C20.5335 10.1333 20.0001 9.59998 19.2001 9.59998H17.3335V8.39998C17.3335 7.59998 16.8001 7.06665 16.0001 7.06665C15.2001 7.06665 14.6668 7.59998 14.6668 8.39998V9.59998H14.2668C12.1335 9.59998 10.4001 11.3333 10.4001 13.4667C10.4001 15.6 12.1335 17.3333 14.2668 17.3333H17.6001C18.2668 17.3333 18.8001 17.8666 18.8001 18.5333C18.8001 19.2 18.2668 19.7333 17.6001 19.7333H12.6668C11.8668 19.7333 11.3335 20.2667 11.3335 21.0667C11.3335 21.8667 11.8668 22.4 12.6668 22.4H14.6668V23.6C14.6668 24.4 15.2001 24.9333 16.0001 24.9333C16.8001 24.9333 17.3335 24.4 17.3335 23.6V22.4H17.7335C19.8668 22.4 21.6001 20.6667 21.6001 18.5333C21.6001 16.4 19.8668 14.6667 17.7335 14.6667Z" />
        </symbol>
        <symbol id="chocolate" viewBox="0 0 32 32">
            <path
                d="M13.822 2.41301L21.349 9.94901L21.429 9.86901C21.5867 9.71469 21.7978 9.6272 22.0184 9.62477C22.239 9.62235 22.452 9.70519 22.613 9.85601L22.619 9.86201L23.486 10.729C23.791 11.034 23.801 11.499 23.569 11.823L23.565 11.83L23.422 12.022L29.582 18.182C30.132 18.732 30.132 19.612 29.582 20.162L20.152 29.592C19.602 30.142 18.722 30.142 18.172 29.592L13.725 25.145C13.6512 25.2381 13.5584 25.3145 13.4529 25.3692C13.3474 25.4239 13.2316 25.4556 13.1129 25.4623C12.9943 25.469 12.8756 25.4505 12.7646 25.4081C12.6536 25.3656 12.5529 25.3002 12.469 25.216L9.86901 22.616C9.71469 22.4584 9.6272 22.2472 9.62477 22.0266C9.62235 21.806 9.70519 21.593 9.85601 21.432L9.86201 21.425L9.93901 21.349L2.41201 13.822C1.86201 13.272 1.86201 12.392 2.41201 11.842L11.842 2.41201C12.392 1.86201 13.272 1.86201 13.822 2.41201V2.41301ZM20.404 10.893L18.648 9.13801C18.5928 9.0811 18.5268 9.03585 18.4538 9.00495C18.3808 8.97405 18.3023 8.95813 18.223 8.95813C18.1437 8.95813 18.0653 8.97405 17.9923 9.00495C17.9193 9.03585 17.8532 9.0811 17.798 9.13801L14.218 12.718C14.1613 12.7743 14.1163 12.8413 14.0856 12.9151C14.0548 12.9889 14.039 13.0681 14.039 13.148C14.039 13.2279 14.0548 13.3071 14.0856 13.3809C14.1163 13.4547 14.1613 13.5217 14.218 13.578L15.967 15.327L16.577 14.717L15.012 13.152L18.222 9.93201L19.791 11.506L20.404 10.893ZM15.328 15.965L13.574 14.211C13.5188 14.1541 13.4528 14.1088 13.3798 14.0779C13.3068 14.047 13.2283 14.0311 13.149 14.0311C13.0697 14.0311 12.9913 14.047 12.9183 14.0779C12.8453 14.1088 12.7792 14.1541 12.724 14.211L9.14401 17.791L9.13901 17.796L9.13401 17.801C8.89401 18.031 8.89401 18.411 9.13401 18.651L10.886 20.403L11.502 19.787L9.93201 18.223L13.152 15.013L14.716 16.576L15.328 15.965ZM8.82201 8.19301L12.402 11.773C12.642 12.013 13.022 12.013 13.252 11.763L16.832 8.18301C16.8889 8.12884 16.9342 8.06368 16.9651 7.99148C16.9961 7.91929 17.012 7.84156 17.012 7.76301H17.022C17.022 7.61301 16.962 7.45301 16.842 7.33301L13.262 3.75301C13.2058 3.69617 13.1388 3.65105 13.065 3.62025C12.9912 3.58946 12.912 3.5736 12.832 3.5736C12.752 3.5736 12.6729 3.58946 12.599 3.62025C12.5252 3.65105 12.4583 3.69617 12.402 3.75301L8.82201 7.34301C8.58201 7.57301 8.58201 7.95301 8.82201 8.19301ZM3.75201 13.263L7.33201 16.843C7.57201 17.083 7.95201 17.083 8.18201 16.843L11.762 13.263C11.8201 13.2077 11.8661 13.1409 11.8971 13.0669C11.9281 12.9929 11.9434 12.9132 11.942 12.833H11.952C11.952 12.673 11.892 12.523 11.772 12.403L8.19201 8.82301C8.13683 8.7661 8.07077 8.72085 7.99776 8.68995C7.92476 8.65905 7.84629 8.64313 7.76701 8.64313C7.68774 8.64313 7.60927 8.65905 7.53626 8.68995C7.46326 8.72085 7.3972 8.7661 7.34201 8.82301L3.75201 12.413C3.51201 12.643 3.51201 13.023 3.75201 13.263ZM10.685 22.017L13.047 24.38L22.683 11.34L22.028 10.685L10.685 22.017Z" />
            <path
                d="M13.822 2.41301L21.349 9.94901L21.429 9.86901C21.5867 9.71469 21.7978 9.6272 22.0184 9.62477C22.239 9.62235 22.452 9.70519 22.613 9.85601L22.619 9.86201L23.486 10.729C23.791 11.034 23.801 11.499 23.569 11.823L23.565 11.83L23.422 12.022L29.582 18.182C30.132 18.732 30.132 19.612 29.582 20.162L20.152 29.592C19.602 30.142 18.722 30.142 18.172 29.592L13.725 25.145C13.6512 25.2381 13.5584 25.3145 13.4529 25.3692C13.3474 25.4239 13.2316 25.4556 13.1129 25.4623C12.9943 25.469 12.8756 25.4505 12.7646 25.4081C12.6536 25.3656 12.5529 25.3002 12.469 25.216L9.86901 22.616C9.71469 22.4584 9.6272 22.2472 9.62477 22.0266C9.62235 21.806 9.70519 21.593 9.85601 21.432L9.86201 21.425L9.93901 21.349L2.41201 13.822C1.86201 13.272 1.86201 12.392 2.41201 11.842L11.842 2.41201C12.392 1.86201 13.272 1.86201 13.822 2.41201V2.41301ZM20.404 10.893L18.648 9.13801C18.5928 9.0811 18.5268 9.03585 18.4538 9.00495C18.3808 8.97405 18.3023 8.95813 18.223 8.95813C18.1437 8.95813 18.0653 8.97405 17.9923 9.00495C17.9193 9.03585 17.8532 9.0811 17.798 9.13801L14.218 12.718C14.1613 12.7743 14.1163 12.8413 14.0856 12.9151C14.0548 12.9889 14.039 13.0681 14.039 13.148C14.039 13.2279 14.0548 13.3071 14.0856 13.3809C14.1163 13.4547 14.1613 13.5217 14.218 13.578L15.967 15.327L16.577 14.717L15.012 13.152L18.222 9.93201L19.791 11.506L20.404 10.893ZM15.328 15.965L13.574 14.211C13.5188 14.1541 13.4528 14.1088 13.3798 14.0779C13.3068 14.047 13.2283 14.0311 13.149 14.0311C13.0697 14.0311 12.9913 14.047 12.9183 14.0779C12.8453 14.1088 12.7792 14.1541 12.724 14.211L9.14401 17.791L9.13901 17.796L9.13401 17.801C8.89401 18.031 8.89401 18.411 9.13401 18.651L10.886 20.403L11.502 19.787L9.93201 18.223L13.152 15.013L14.716 16.576L15.328 15.965ZM8.82201 8.19301L12.402 11.773C12.642 12.013 13.022 12.013 13.252 11.763L16.832 8.18301C16.8889 8.12884 16.9342 8.06368 16.9651 7.99148C16.9961 7.91929 17.012 7.84156 17.012 7.76301H17.022C17.022 7.61301 16.962 7.45301 16.842 7.33301L13.262 3.75301C13.2058 3.69617 13.1388 3.65105 13.065 3.62025C12.9912 3.58946 12.912 3.5736 12.832 3.5736C12.752 3.5736 12.6729 3.58946 12.599 3.62025C12.5252 3.65105 12.4583 3.69617 12.402 3.75301L8.82201 7.34301C8.58201 7.57301 8.58201 7.95301 8.82201 8.19301ZM3.75201 13.263L7.33201 16.843C7.57201 17.083 7.95201 17.083 8.18201 16.843L11.762 13.263C11.8201 13.2077 11.8661 13.1409 11.8971 13.0669C11.9281 12.9929 11.9434 12.9132 11.942 12.833H11.952C11.952 12.673 11.892 12.523 11.772 12.403L8.19201 8.82301C8.13683 8.7661 8.07077 8.72085 7.99776 8.68995C7.92476 8.65905 7.84629 8.64313 7.76701 8.64313C7.68774 8.64313 7.60927 8.65905 7.53626 8.68995C7.46326 8.72085 7.3972 8.7661 7.34201 8.82301L3.75201 12.413C3.51201 12.643 3.51201 13.023 3.75201 13.263ZM10.685 22.017L13.047 24.38L22.683 11.34L22.028 10.685L10.685 22.017Z" />
        </symbol>
        <symbol id="spoon" viewBox="0 0 32 32">
            <path
                d="M15.4516 14.106C14.669 13.156 14.2751 11.99 14.2751 10.8241C14.2751 6.50028 19.4561 2.18188 24.6372 2.18188C27.4976 2.18188 29.8183 4.50302 29.8183 7.36396C29.8183 12.546 25.5007 17.7281 21.1724 17.7281C20.0066 17.7281 18.8409 17.334 17.891 16.5513L5.13266 29.3122C4.45804 29.9869 3.36246 29.9869 2.68785 29.3122C2.01323 28.6374 2.01323 27.5416 2.68785 26.8669L15.4516 14.106Z" />
        </symbol>
        <!-- Buttons -->
        <symbol id="anchor" viewBox="0 0 22 22">
            <path
                d="M11.6512 12.2834C11.566 12.3693 11.4646 12.4375 11.3529 12.484C11.2412 12.5306 11.1214 12.5545 11.0004 12.5545C10.8794 12.5545 10.7596 12.5306 10.6479 12.484C10.5362 12.4375 10.4348 12.3693 10.3496 12.2834L6.15124 8.07588C6.06602 7.98996 5.96464 7.92177 5.85293 7.87523C5.74123 7.82869 5.62141 7.80473 5.5004 7.80473C5.37939 7.80473 5.25958 7.82869 5.14787 7.87523C5.03617 7.92177 4.93478 7.98996 4.84957 8.07588C4.67884 8.24763 4.58301 8.47996 4.58301 8.72213C4.58301 8.9643 4.67884 9.19663 4.84957 9.36838L9.05707 13.5759C9.5727 14.0909 10.2717 14.3801 11.0004 14.3801C11.7292 14.3801 12.4281 14.0909 12.9437 13.5759L17.1513 9.36838C17.3206 9.19764 17.4161 8.96719 17.4171 8.72671C17.4178 8.60607 17.3947 8.48648 17.349 8.3748C17.3034 8.26311 17.2362 8.16153 17.1513 8.07588C17.066 7.98996 16.9647 7.92177 16.8529 7.87523C16.7412 7.82869 16.6214 7.80473 16.5004 7.80473C16.3794 7.80473 16.2596 7.82869 16.1479 7.87523C16.0362 7.92177 15.9348 7.98996 15.8496 8.07588L11.6512 12.2834Z"
                fill="#FD9222" />
        </symbol>
        <symbol id="close-modal" viewBox="0 0 32 32">
            <path
                d="M32 3.223l-3.223-3.223-12.777 12.777-12.777-12.777-3.223 3.223 12.777 12.777-12.777 12.777 3.223 3.223 12.777-12.777 12.777 12.777 3.223-3.223-12.777-12.777 12.777-12.777z">
            </path>
        </symbol>
        <symbol id="logo-icon" viewBox="0 0 24 24">
            <path
                d="M2.95799 15.0568L11.0406 1.9886L11.5206 1.48303L17.6974 5.6014L17.7397 8.08665L19.2472 10.5463L12.5874 21.1038L2.95799 15.0568Z"
                fill="#FCF1E0" />
            <path
                d="M16.2259 17.9097L5.5868 11.2616M8.52069 6.44905L19.1598 13.0971M7.97248 19.3982L16.7742 4.96051M20.3823 11.0919C18.1025 9.6673 17.2071 8.55395 18.674 6.14767L11.4546 1.63647L2.6529 16.0742L13.2921 22.7223L20.3823 11.0919Z"
                stroke="#FD9222" stroke-width="2" stroke-linecap="round" stroke-linejoin="round" />
        </symbol>
        <symbol id="menu-icon" viewBox="0 0 32 32">
            <path d="M4 16H28M4 8H28M4 24H28" stroke="#111111" stroke-width="2.5" stroke-linecap="round"
                stroke-linejoin="round" />
        </symbol>
        <!-- Modal-->
        <symbol id="icon-flag-icon" viewBox="0 0 32 32">
            <path fill="#ffd700" style="fill: var(--color1, #ffd700)" d="M31.832 5.058h-31.59v23.509h31.59v-23.509z">
            </path>
            <path fill="#0057b7" style="fill: var(--color2, #0057b7)" d="M0.243 5.058h31.589v11.754h-31.59v-11.754z">
            </path>
        </symbol>
        <symbol id="icon-mastercard" viewBox="0 0 47 32">
            <path fill="#fafafa" style="fill: var(--color3, #fafafa)"
                d="M4.267 0.533h38.4c2.062 0 3.733 1.671 3.733 3.733v23.467c0 2.062-1.671 3.733-3.733 3.733h-38.4c-2.062 0-3.733-1.671-3.733-3.733v-23.467c0-2.062 1.671-3.733 3.733-3.733z">
            </path>
            <path fill="#ed0006" style="fill: var(--color4, #ed0006)"
                d="M23.467 23.29c-1.686 1.458-3.9 2.346-6.321 2.346-0.004 0-0.007 0-0.011 0h0.001c-5.391 0-9.76-4.395-9.76-9.818 0-5.422 4.369-9.818 9.76-9.818 2.415 0 4.626 0.883 6.331 2.346 1.686-1.458 3.9-2.346 6.321-2.346 0.004 0 0.007 0 0.011 0h-0.001c5.391 0 9.76 4.395 9.76 9.818 0 5.422-4.369 9.818-9.76 9.818-0.003 0-0.007 0-0.010 0-2.421 0-4.635-0.888-6.333-2.356l0.012 0.010z">
            </path>
            <path fill="#f9a000" style="fill: var(--color5, #f9a000)"
                d="M23.467 23.29c2.105-1.812 3.429-4.479 3.429-7.456 0-0.006 0-0.011 0-0.017v0.001c0-0.005 0-0.010 0-0.016 0-2.977-1.325-5.644-3.416-7.445l-0.013-0.011c1.686-1.458 3.9-2.346 6.321-2.346 0.004 0 0.007 0 0.011 0h-0.001c5.391 0 9.76 4.395 9.76 9.818 0 5.422-4.369 9.818-9.76 9.818-0.003 0-0.007 0-0.010 0-2.421 0-4.635-0.888-6.333-2.356l0.012 0.010z">
            </path>
            <path fill="#ff5e00" style="fill: var(--color6, #ff5e00)"
                d="M23.467 23.29c2.105-1.812 3.429-4.479 3.429-7.456 0-0.006 0-0.011 0-0.017v0.001c0-0.005 0-0.010 0-0.016 0-2.977-1.325-5.644-3.416-7.445l-0.013-0.011c-2.105 1.812-3.429 4.479-3.429 7.456 0 0.006 0 0.011 0 0.017v-0.001c0 0.005 0 0.010 0 0.016 0 2.977 1.325 5.644 3.416 7.445l0.013 0.011z">
            </path>
            <path fill="none" stroke="#fafafa" style="stroke: var(--color3, #fafafa)" stroke-linejoin="miter"
                stroke-linecap="butt" stroke-miterlimit="4" stroke-width="1.0667"
                d="M4.267 0.533h38.4c2.062 0 3.733 1.671 3.733 3.733v23.467c0 2.062-1.671 3.733-3.733 3.733h-38.4c-2.062 0-3.733-1.671-3.733-3.733v-23.467c0-2.062 1.671-3.733 3.733-3.733z">
            </path>
        </symbol>
    </defs>
</svg>